<svg width="515" height="77" viewBox="0 0 515 77" fill="none" xmlns="http://www.w3.org/2000/svg">
<path d="M56.96 44.08C55.5733 46.6933 53.84 49.04 51.76 51.12C48.9867 53.8933 45.8133 56.0267 42.24 57.52C38.5067 59.0667 34.64 59.84 30.64 59.84C26.64 59.84 22.7733 59.0667 19.04 57.52C15.4133 56.0267 12.24 53.8933 9.52 51.12C6.74667 48.4 4.61333 45.2267 3.12 41.6C1.57333 37.8667 0.8 34 0.8 30C0.8 26 1.57333 22.1333 3.12 18.4C4.61333 14.8267 6.74667 11.6533 9.52 8.88C12.24 6.16 15.4133 4.02667 19.04 2.48C22.7733 0.933331 26.64 0.159996 30.64 0.159996C34.64 0.159996 38.5067 0.933331 42.24 2.48C45.8133 4.02667 48.9867 6.16 51.76 8.88C53.84 10.96 55.5733 13.3067 56.96 15.92H50.4C49.9733 15.3333 49.5467 14.8 49.12 14.32C48.6933 13.84 48.24 13.36 47.76 12.88C45.4667 10.5333 42.8533 8.77333 39.92 7.6C36.9867 6.37333 33.8933 5.76 30.64 5.76C27.3867 5.76 24.2933 6.37333 21.36 7.6C18.4267 8.77333 15.8133 10.5333 13.52 12.88C11.1733 15.1733 9.38667 17.7867 8.16 20.72C6.98667 23.6533 6.4 26.7467 6.4 30C6.4 33.2533 6.98667 36.3467 8.16 39.28C9.38667 42.2133 11.1733 44.8267 13.52 47.12C15.8133 49.4667 18.4267 51.2533 21.36 52.48C24.2933 53.6533 27.3867 54.24 30.64 54.24C33.8933 54.24 36.9867 53.6533 39.92 52.48C42.8533 51.2533 45.4667 49.4667 47.76 47.12C48.24 46.64 48.6933 46.16 49.12 45.68C49.5467 45.2 49.9733 44.6667 50.4 44.08H56.96ZM85.2556 59.84C82.3223 59.84 79.5223 59.28 76.8556 58.16C74.2423 57.04 71.8956 55.4667 69.8156 53.44C67.789 51.36 66.2156 48.9867 65.0956 46.32C63.9756 43.6533 63.4156 40.88 63.4156 38C63.4156 35.0667 63.9756 32.2667 65.0956 29.6C66.2156 26.9333 67.789 24.56 69.8156 22.48C71.8956 20.4533 74.2423 18.88 76.8556 17.76C79.5223 16.64 82.3223 16.08 85.2556 16.08C88.189 16.08 90.989 16.64 93.6556 17.76C96.3223 18.88 98.6956 20.4533 100.776 22.48C102.802 24.56 104.376 26.9333 105.496 29.6C106.616 32.2667 107.176 35.0667 107.176 38C107.176 40.88 106.616 43.6533 105.496 46.32C104.376 48.9867 102.802 51.36 100.776 53.44C98.6956 55.4667 96.3223 57.04 93.6556 58.16C90.989 59.28 88.189 59.84 85.2556 59.84ZM85.2556 21.68C83.0156 21.68 80.909 22.1067 78.9356 22.96C76.9623 23.8133 75.229 24.9867 73.7356 26.48C72.2956 27.92 71.149 29.6533 70.2956 31.68C69.4423 33.6533 69.0156 35.76 69.0156 38C69.0156 40.24 69.4423 42.3467 70.2956 44.32C71.149 46.2933 72.2956 48.0267 73.7356 49.52C75.229 50.96 76.9623 52.1067 78.9356 52.96C80.909 53.8133 83.0156 54.24 85.2556 54.24C87.4956 54.24 89.6023 53.8133 91.5756 52.96C93.549 52.1067 95.2823 50.96 96.7756 49.52C98.269 48.0267 99.4423 46.2933 100.296 44.32C101.149 42.3467 101.576 40.24 101.576 38C101.576 35.76 101.149 33.6533 100.296 31.68C99.4423 29.6533 98.269 27.92 96.7756 26.48C95.2823 24.9867 93.549 23.8133 91.5756 22.96C89.6023 22.1067 87.4956 21.68 85.2556 21.68ZM149.015 21.12C150.722 22.8267 152.028 24.7733 152.935 26.96C153.842 29.1467 154.295 31.44 154.295 33.84V58H148.695V33.84C148.695 32.1333 148.348 30.5333 147.655 29.04C147.015 27.5467 146.135 26.24 145.015 25.12C143.895 24 142.588 23.12 141.095 22.48C139.602 21.84 138.002 21.52 136.295 21.52C134.588 21.52 132.988 21.84 131.495 22.48C130.002 23.12 128.695 24 127.575 25.12C126.455 26.24 125.575 27.5467 124.935 29.04C124.295 30.5333 123.975 32.1333 123.975 33.84V58H118.375V18H123.015L123.975 21.6C125.682 19.7333 127.575 18.32 129.655 17.36C131.735 16.4 133.948 15.92 136.295 15.92C138.695 15.92 140.988 16.3733 143.175 17.28C145.362 18.1333 147.308 19.4133 149.015 21.12ZM180.402 59.84C179.869 59.84 179.229 59.8133 178.482 59.76C177.735 59.7067 176.935 59.5733 176.082 59.36C175.229 59.1467 174.349 58.8533 173.442 58.48C172.535 58.16 171.655 57.7067 170.802 57.12C170.215 56.6933 169.602 56.16 168.962 55.52C168.322 54.88 167.735 54.1333 167.202 53.28C166.722 52.3733 166.322 51.36 166.002 50.24C165.682 49.0667 165.522 47.7333 165.522 46.24H171.122C171.122 49.0667 172.082 51.1467 174.002 52.48C175.655 53.6533 177.789 54.24 180.402 54.24C181.362 54.24 182.322 54.1333 183.282 53.92C184.295 53.6533 185.175 53.28 185.922 52.8C186.669 52.2667 187.282 51.6267 187.762 50.88C188.242 50.08 188.482 49.1467 188.482 48.08C188.482 46.9067 188.162 45.8933 187.522 45.04C186.882 44.1867 186.055 43.44 185.042 42.8C184.029 42.16 182.882 41.6 181.602 41.12C180.322 40.64 179.042 40.2133 177.762 39.84C176.482 39.4133 175.282 39.0133 174.162 38.64C173.042 38.2133 172.109 37.7333 171.362 37.2C168.269 35.0667 166.722 32.1333 166.722 28.4C166.722 26.48 167.095 24.7733 167.842 23.28C168.589 21.7333 169.575 20.4267 170.802 19.36C172.029 18.24 173.442 17.3867 175.042 16.8C176.642 16.2133 178.322 15.92 180.082 15.92C182.162 15.92 183.975 16.24 185.522 16.88C187.122 17.52 188.455 18.3733 189.522 19.44C190.589 20.4533 191.389 21.6267 191.922 22.96C192.455 24.24 192.722 25.5467 192.722 26.88H187.122C187.069 25.92 186.829 25.12 186.402 24.48C185.975 23.7867 185.415 23.2267 184.722 22.8C184.082 22.3733 183.335 22.0533 182.482 21.84C181.682 21.6267 180.882 21.52 180.082 21.52C177.682 21.52 175.789 22.16 174.402 23.44C173.015 24.6667 172.322 26.32 172.322 28.4C172.322 30.2667 173.015 31.6533 174.402 32.56C175.789 33.4133 178.002 34.2933 181.042 35.2C182.589 35.7333 184.109 36.2667 185.602 36.8C187.149 37.3333 188.562 38.1333 189.842 39.2C192.669 41.44 194.082 44.4 194.082 48.08C194.082 50 193.682 51.68 192.882 53.12C192.082 54.56 191.042 55.7867 189.762 56.8C188.482 57.8133 187.015 58.56 185.362 59.04C183.709 59.5733 182.055 59.84 180.402 59.84ZM204.466 23.6V18H208.546V2H214.146V18H224.626V23.6H214.146V58H208.546V23.6H204.466ZM257.911 23.92C256.525 23.4933 255.138 23.28 253.751 23.28C252.045 23.28 250.445 23.6 248.951 24.24C247.458 24.88 246.151 25.76 245.031 26.88C243.911 28 243.031 29.3067 242.391 30.8C241.751 32.2933 241.431 33.8933 241.431 35.6V58H235.831V18H240.471L241.831 22.16C243.485 20.72 245.325 19.6267 247.351 18.88C249.378 18.08 251.511 17.68 253.751 17.68C254.498 17.68 255.191 17.7333 255.831 17.84C256.525 17.8933 257.218 17.9733 257.911 18.08V23.92ZM274.43 54.64C272.723 52.9333 271.417 50.9867 270.51 48.8C269.603 46.6133 269.15 44.32 269.15 41.92V18H274.75V41.92C274.75 43.6267 275.07 45.2267 275.71 46.72C276.403 48.2133 277.31 49.52 278.43 50.64C279.55 51.76 280.857 52.64 282.35 53.28C283.843 53.92 285.443 54.24 287.15 54.24C288.857 54.24 290.457 53.92 291.95 53.28C293.443 52.64 294.75 51.76 295.87 50.64C296.99 49.52 297.87 48.2133 298.51 46.72C299.203 45.2267 299.55 43.6267 299.55 41.92V18H305.15V41.92C305.15 44.32 304.697 46.6133 303.79 48.8C302.883 50.9867 301.577 52.9333 299.87 54.64C298.163 56.3467 296.217 57.6267 294.03 58.48C291.843 59.3867 289.55 59.84 287.15 59.84C284.75 59.84 282.457 59.3867 280.27 58.48C278.083 57.6267 276.137 56.3467 274.43 54.64ZM346.775 54.96C345.068 56.5067 343.148 57.7067 341.015 58.56C338.935 59.4133 336.722 59.84 334.375 59.84C331.975 59.84 329.682 59.3867 327.495 58.48C325.308 57.6267 323.362 56.3467 321.655 54.64C319.948 52.9333 318.642 50.9867 317.735 48.8C316.828 46.6133 316.375 44.32 316.375 41.92V18H321.975V41.92C321.975 43.6267 322.295 45.2267 322.935 46.72C323.628 48.2133 324.535 49.52 325.655 50.64C326.775 51.76 328.082 52.64 329.575 53.28C331.068 53.92 332.668 54.24 334.375 54.24C336.028 54.24 337.575 53.9467 339.015 53.36C340.508 52.72 341.815 51.8667 342.935 50.8C344.055 49.7333 344.935 48.5067 345.575 47.12C346.268 45.68 346.668 44.1333 346.775 42.48V18H352.375V58.96C352.375 61.6267 352.002 64.0267 351.255 66.16C350.508 68.3467 349.442 70.2133 348.055 71.76C346.668 73.36 344.962 74.5867 342.935 75.44C340.962 76.2933 338.722 76.72 336.215 76.72V71.12C338.082 71.12 339.682 70.7733 341.015 70.08C342.348 69.44 343.442 68.56 344.295 67.44C345.148 66.32 345.762 65.0133 346.135 63.52C346.562 62.08 346.775 60.56 346.775 58.96V54.96Z" fill="white"/>
<path d="M362.4 37.92C362.4 34.88 362.96 32.0533 364.08 29.44C365.253 26.7733 366.827 24.48 368.8 22.56C370.773 20.5867 373.067 19.04 375.68 17.92C378.347 16.7467 381.2 16.16 384.24 16.16C387.28 16.16 390.107 16.7467 392.72 17.92C395.387 19.04 397.68 20.5867 399.6 22.56C401.573 24.48 403.12 26.7733 404.24 29.44C405.413 32.0533 406 34.88 406 37.92V58H396.72V55.76C393.093 58.3733 388.933 59.68 384.24 59.68C380.933 59.68 377.92 59.12 375.2 58C372.533 56.88 370.24 55.3333 368.32 53.36C366.453 51.3867 364.987 49.0933 363.92 46.48C362.907 43.8133 362.4 40.96 362.4 37.92ZM371.76 37.92C371.76 39.6267 372.08 41.2533 372.72 42.8C373.413 44.2933 374.32 45.6 375.44 46.72C376.56 47.84 377.867 48.7467 379.36 49.44C380.907 50.08 382.533 50.4 384.24 50.4C385.947 50.4 387.547 50.1067 389.04 49.52C390.587 48.88 391.92 48 393.04 46.88C394.16 45.76 395.04 44.4533 395.68 42.96C396.373 41.4133 396.72 39.7333 396.72 37.92C396.72 36.2133 396.373 34.6133 395.68 33.12C395.04 31.5733 394.16 30.24 393.04 29.12C391.92 28 390.587 27.12 389.04 26.48C387.547 25.7867 385.947 25.44 384.24 25.44C382.533 25.44 380.907 25.7867 379.36 26.48C377.867 27.12 376.56 28 375.44 29.12C374.32 30.24 373.413 31.5733 372.72 33.12C372.08 34.6133 371.76 36.2133 371.76 37.92ZM416.781 38C416.781 34.9067 417.341 32.0533 418.461 29.44C419.581 26.7733 421.128 24.48 423.101 22.56C425.075 20.5867 427.368 19.04 429.981 17.92C432.648 16.8 435.501 16.24 438.541 16.24C441.581 16.24 444.408 16.8267 447.021 18C449.688 19.12 451.981 20.6667 453.901 22.64C455.875 24.56 457.421 26.8533 458.541 29.52C459.715 32.1333 460.301 34.96 460.301 38C460.301 41.04 459.715 43.8933 458.541 46.56C457.421 49.1733 455.875 51.4667 453.901 53.44C451.981 55.36 449.688 56.88 447.021 58C444.408 59.1733 441.581 59.76 438.541 59.76C436.248 59.76 433.928 59.28 431.581 58.32C429.288 57.4133 427.448 56.32 426.061 55.04V73.84H416.781V38ZM426.061 38C426.061 39.7067 426.381 41.3333 427.021 42.88C427.715 44.3733 428.621 45.68 429.741 46.8C430.861 47.92 432.168 48.8267 433.661 49.52C435.208 50.16 436.835 50.48 438.541 50.48C440.248 50.48 441.848 50.16 443.341 49.52C444.888 48.8267 446.221 47.92 447.341 46.8C448.461 45.68 449.341 44.3733 449.981 42.88C450.675 41.3333 451.021 39.7067 451.021 38C451.021 36.2933 450.675 34.6933 449.981 33.2C449.341 31.6533 448.461 30.32 447.341 29.2C446.221 28.08 444.888 27.2 443.341 26.56C441.848 25.8667 440.248 25.52 438.541 25.52C436.835 25.52 435.208 25.8667 433.661 26.56C432.168 27.2 430.861 28.08 429.741 29.2C428.621 30.32 427.715 31.6533 427.021 33.2C426.381 34.6933 426.061 36.2933 426.061 38ZM471.116 38C471.116 34.9067 471.676 32.0533 472.796 29.44C473.916 26.7733 475.462 24.48 477.436 22.56C479.409 20.5867 481.702 19.04 484.316 17.92C486.982 16.8 489.836 16.24 492.876 16.24C495.916 16.24 498.742 16.8267 501.356 18C504.022 19.12 506.316 20.6667 508.236 22.64C510.209 24.56 511.756 26.8533 512.876 29.52C514.049 32.1333 514.636 34.96 514.636 38C514.636 41.04 514.049 43.8933 512.876 46.56C511.756 49.1733 510.209 51.4667 508.236 53.44C506.316 55.36 504.022 56.88 501.356 58C498.742 59.1733 495.916 59.76 492.876 59.76C490.582 59.76 488.262 59.28 485.916 58.32C483.622 57.4133 481.782 56.32 480.396 55.04V73.84H471.116V38ZM480.396 38C480.396 39.7067 480.716 41.3333 481.356 42.88C482.049 44.3733 482.956 45.68 484.076 46.8C485.196 47.92 486.502 48.8267 487.996 49.52C489.542 50.16 491.169 50.48 492.876 50.48C494.582 50.48 496.182 50.16 497.676 49.52C499.222 48.8267 500.556 47.92 501.676 46.8C502.796 45.68 503.676 44.3733 504.316 42.88C505.009 41.3333 505.356 39.7067 505.356 38C505.356 36.2933 505.009 34.6933 504.316 33.2C503.676 31.6533 502.796 30.32 501.676 29.2C500.556 28.08 499.222 27.2 497.676 26.56C496.182 25.8667 494.582 25.52 492.876 25.52C491.169 25.52 489.542 25.8667 487.996 26.56C486.502 27.2 485.196 28.08 484.076 29.2C482.956 30.32 482.049 31.6533 481.356 33.2C480.716 34.6933 480.396 36.2933 480.396 38Z" fill="#A1D91E"/>
</svg>
