<svg width="175" height="174" viewBox="0 0 175 174" fill="none" xmlns="http://www.w3.org/2000/svg">
<rect x="11" y="11" width="153" height="153" stroke="#FBFBFB" stroke-width="3" stroke-dasharray="6 6"/>
<rect y="152" width="22" height="22" fill="#A1D91E"/>
<rect x="153" y="152" width="22" height="22" fill="white"/>
<rect width="22" height="22" fill="white"/>
<rect x="153" width="22" height="22" fill="#A1D91E"/>
<path d="M54.26 82C54.26 86.8533 55.1933 91.4267 57.06 95.72C58.9267 99.92 61.4467 103.653 64.62 106.92C67.8867 110.093 71.6667 112.613 75.96 114.48C80.2533 116.347 84.8267 117.28 89.68 117.28C94.5333 117.28 99.1067 116.347 103.4 114.48C107.693 112.52 111.473 109.907 114.74 106.64H135.88C133.733 110.653 131.073 114.34 127.9 117.7C124.82 121.06 121.32 123.953 117.4 126.38C113.48 128.807 109.187 130.673 104.52 131.98C99.8533 133.38 94.9067 134.08 89.68 134.08C82.4933 134.08 75.7267 132.727 69.38 130.02C63.1267 127.22 57.62 123.487 52.86 118.82C48.1933 114.06 44.46 108.553 41.66 102.3C38.9533 95.9533 37.6 89.1867 37.6 82C37.6 74.9067 38.9533 68.1867 41.66 61.84C44.46 55.4933 48.1933 49.9867 52.86 45.32C57.62 40.56 63.1267 36.8267 69.38 34.12C75.7267 31.32 82.4933 29.92 89.68 29.92C95 29.92 99.9933 30.6667 104.66 32.16C109.327 33.6533 113.62 35.7067 117.54 38.32C121.553 40.84 125.1 43.78 128.18 47.14C131.26 50.5 133.827 54.0467 135.88 57.78H114.6C111.24 54.42 107.46 51.76 103.26 49.8C99.06 47.84 94.5333 46.86 89.68 46.86C84.8267 46.86 80.2533 47.7933 75.96 49.66C71.6667 51.5267 67.8867 54.0467 64.62 57.22C61.4467 60.3933 58.9267 64.1267 57.06 68.42C55.1933 72.7133 54.26 77.24 54.26 82Z" fill="#A1D91E"/>
</svg>
