<svg width="523" height="285" viewBox="0 0 523 285" fill="none" xmlns="http://www.w3.org/2000/svg">
<path d="M60.96 249.08C59.5733 251.693 57.84 254.04 55.76 256.12C52.9867 258.893 49.8133 261.027 46.24 262.52C42.5067 264.067 38.64 264.84 34.64 264.84C30.64 264.84 26.7733 264.067 23.04 262.52C19.4133 261.027 16.24 258.893 13.52 256.12C10.7467 253.4 8.61333 250.227 7.12 246.6C5.57333 242.867 4.8 239 4.8 235C4.8 231 5.57333 227.133 7.12 223.4C8.61333 219.827 10.7467 216.653 13.52 213.88C16.24 211.16 19.4133 209.027 23.04 207.48C26.7733 205.933 30.64 205.16 34.64 205.16C38.64 205.16 42.5067 205.933 46.24 207.48C49.8133 209.027 52.9867 211.16 55.76 213.88C57.84 215.96 59.5733 218.307 60.96 220.92H54.4C53.9733 220.333 53.5467 219.8 53.12 219.32C52.6933 218.84 52.24 218.36 51.76 217.88C49.4667 215.533 46.8533 213.773 43.92 212.6C40.9867 211.373 37.8933 210.76 34.64 210.76C31.3867 210.76 28.2933 211.373 25.36 212.6C22.4267 213.773 19.8133 215.533 17.52 217.88C15.1733 220.173 13.3867 222.787 12.16 225.72C10.9867 228.653 10.4 231.747 10.4 235C10.4 238.253 10.9867 241.347 12.16 244.28C13.3867 247.213 15.1733 249.827 17.52 252.12C19.8133 254.467 22.4267 256.253 25.36 257.48C28.2933 258.653 31.3867 259.24 34.64 259.24C37.8933 259.24 40.9867 258.653 43.92 257.48C46.8533 256.253 49.4667 254.467 51.76 252.12C52.24 251.64 52.6933 251.16 53.12 250.68C53.5467 250.2 53.9733 249.667 54.4 249.08H60.96ZM89.2556 264.84C86.3223 264.84 83.5223 264.28 80.8556 263.16C78.2423 262.04 75.8956 260.467 73.8156 258.44C71.789 256.36 70.2156 253.987 69.0956 251.32C67.9756 248.653 67.4156 245.88 67.4156 243C67.4156 240.067 67.9756 237.267 69.0956 234.6C70.2156 231.933 71.789 229.56 73.8156 227.48C75.8956 225.453 78.2423 223.88 80.8556 222.76C83.5223 221.64 86.3223 221.08 89.2556 221.08C92.189 221.08 94.989 221.64 97.6556 222.76C100.322 223.88 102.696 225.453 104.776 227.48C106.802 229.56 108.376 231.933 109.496 234.6C110.616 237.267 111.176 240.067 111.176 243C111.176 245.88 110.616 248.653 109.496 251.32C108.376 253.987 106.802 256.36 104.776 258.44C102.696 260.467 100.322 262.04 97.6556 263.16C94.989 264.28 92.189 264.84 89.2556 264.84ZM89.2556 226.68C87.0156 226.68 84.909 227.107 82.9356 227.96C80.9623 228.813 79.229 229.987 77.7356 231.48C76.2956 232.92 75.149 234.653 74.2956 236.68C73.4423 238.653 73.0156 240.76 73.0156 243C73.0156 245.24 73.4423 247.347 74.2956 249.32C75.149 251.293 76.2956 253.027 77.7356 254.52C79.229 255.96 80.9623 257.107 82.9356 257.96C84.909 258.813 87.0156 259.24 89.2556 259.24C91.4956 259.24 93.6023 258.813 95.5756 257.96C97.549 257.107 99.2823 255.96 100.776 254.52C102.269 253.027 103.442 251.293 104.296 249.32C105.149 247.347 105.576 245.24 105.576 243C105.576 240.76 105.149 238.653 104.296 236.68C103.442 234.653 102.269 232.92 100.776 231.48C99.2823 229.987 97.549 228.813 95.5756 227.96C93.6023 227.107 91.4956 226.68 89.2556 226.68ZM153.015 226.12C154.722 227.827 156.028 229.773 156.935 231.96C157.842 234.147 158.295 236.44 158.295 238.84V263H152.695V238.84C152.695 237.133 152.348 235.533 151.655 234.04C151.015 232.547 150.135 231.24 149.015 230.12C147.895 229 146.588 228.12 145.095 227.48C143.602 226.84 142.002 226.52 140.295 226.52C138.588 226.52 136.988 226.84 135.495 227.48C134.002 228.12 132.695 229 131.575 230.12C130.455 231.24 129.575 232.547 128.935 234.04C128.295 235.533 127.975 237.133 127.975 238.84V263H122.375V223H127.015L127.975 226.6C129.682 224.733 131.575 223.32 133.655 222.36C135.735 221.4 137.948 220.92 140.295 220.92C142.695 220.92 144.988 221.373 147.175 222.28C149.362 223.133 151.308 224.413 153.015 226.12ZM184.402 264.84C183.869 264.84 183.229 264.813 182.482 264.76C181.735 264.707 180.935 264.573 180.082 264.36C179.229 264.147 178.349 263.853 177.442 263.48C176.535 263.16 175.655 262.707 174.802 262.12C174.215 261.693 173.602 261.16 172.962 260.52C172.322 259.88 171.735 259.133 171.202 258.28C170.722 257.373 170.322 256.36 170.002 255.24C169.682 254.067 169.522 252.733 169.522 251.24H175.122C175.122 254.067 176.082 256.147 178.002 257.48C179.655 258.653 181.789 259.24 184.402 259.24C185.362 259.24 186.322 259.133 187.282 258.92C188.295 258.653 189.175 258.28 189.922 257.8C190.669 257.267 191.282 256.627 191.762 255.88C192.242 255.08 192.482 254.147 192.482 253.08C192.482 251.907 192.162 250.893 191.522 250.04C190.882 249.187 190.055 248.44 189.042 247.8C188.029 247.16 186.882 246.6 185.602 246.12C184.322 245.64 183.042 245.213 181.762 244.84C180.482 244.413 179.282 244.013 178.162 243.64C177.042 243.213 176.109 242.733 175.362 242.2C172.269 240.067 170.722 237.133 170.722 233.4C170.722 231.48 171.095 229.773 171.842 228.28C172.589 226.733 173.575 225.427 174.802 224.36C176.029 223.24 177.442 222.387 179.042 221.8C180.642 221.213 182.322 220.92 184.082 220.92C186.162 220.92 187.975 221.24 189.522 221.88C191.122 222.52 192.455 223.373 193.522 224.44C194.589 225.453 195.389 226.627 195.922 227.96C196.455 229.24 196.722 230.547 196.722 231.88H191.122C191.069 230.92 190.829 230.12 190.402 229.48C189.975 228.787 189.415 228.227 188.722 227.8C188.082 227.373 187.335 227.053 186.482 226.84C185.682 226.627 184.882 226.52 184.082 226.52C181.682 226.52 179.789 227.16 178.402 228.44C177.015 229.667 176.322 231.32 176.322 233.4C176.322 235.267 177.015 236.653 178.402 237.56C179.789 238.413 182.002 239.293 185.042 240.2C186.589 240.733 188.109 241.267 189.602 241.8C191.149 242.333 192.562 243.133 193.842 244.2C196.669 246.44 198.082 249.4 198.082 253.08C198.082 255 197.682 256.68 196.882 258.12C196.082 259.56 195.042 260.787 193.762 261.8C192.482 262.813 191.015 263.56 189.362 264.04C187.709 264.573 186.055 264.84 184.402 264.84ZM208.466 228.6V223H212.546V207H218.146V223H228.626V228.6H218.146V263H212.546V228.6H208.466ZM261.911 228.92C260.525 228.493 259.138 228.28 257.751 228.28C256.045 228.28 254.445 228.6 252.951 229.24C251.458 229.88 250.151 230.76 249.031 231.88C247.911 233 247.031 234.307 246.391 235.8C245.751 237.293 245.431 238.893 245.431 240.6V263H239.831V223H244.471L245.831 227.16C247.485 225.72 249.325 224.627 251.351 223.88C253.378 223.08 255.511 222.68 257.751 222.68C258.498 222.68 259.191 222.733 259.831 222.84C260.525 222.893 261.218 222.973 261.911 223.08V228.92ZM278.43 259.64C276.723 257.933 275.417 255.987 274.51 253.8C273.603 251.613 273.15 249.32 273.15 246.92V223H278.75V246.92C278.75 248.627 279.07 250.227 279.71 251.72C280.403 253.213 281.31 254.52 282.43 255.64C283.55 256.76 284.857 257.64 286.35 258.28C287.843 258.92 289.443 259.24 291.15 259.24C292.857 259.24 294.457 258.92 295.95 258.28C297.443 257.64 298.75 256.76 299.87 255.64C300.99 254.52 301.87 253.213 302.51 251.72C303.203 250.227 303.55 248.627 303.55 246.92V223H309.15V246.92C309.15 249.32 308.697 251.613 307.79 253.8C306.883 255.987 305.577 257.933 303.87 259.64C302.163 261.347 300.217 262.627 298.03 263.48C295.843 264.387 293.55 264.84 291.15 264.84C288.75 264.84 286.457 264.387 284.27 263.48C282.083 262.627 280.137 261.347 278.43 259.64ZM350.775 259.96C349.068 261.507 347.148 262.707 345.015 263.56C342.935 264.413 340.722 264.84 338.375 264.84C335.975 264.84 333.682 264.387 331.495 263.48C329.308 262.627 327.362 261.347 325.655 259.64C323.948 257.933 322.642 255.987 321.735 253.8C320.828 251.613 320.375 249.32 320.375 246.92V223H325.975V246.92C325.975 248.627 326.295 250.227 326.935 251.72C327.628 253.213 328.535 254.52 329.655 255.64C330.775 256.76 332.082 257.64 333.575 258.28C335.068 258.92 336.668 259.24 338.375 259.24C340.028 259.24 341.575 258.947 343.015 258.36C344.508 257.72 345.815 256.867 346.935 255.8C348.055 254.733 348.935 253.507 349.575 252.12C350.268 250.68 350.668 249.133 350.775 247.48V223H356.375V263.96C356.375 266.627 356.002 269.027 355.255 271.16C354.508 273.347 353.442 275.213 352.055 276.76C350.668 278.36 348.962 279.587 346.935 280.44C344.962 281.293 342.722 281.72 340.215 281.72V276.12C342.082 276.12 343.682 275.773 345.015 275.08C346.348 274.44 347.442 273.56 348.295 272.44C349.148 271.32 349.762 270.013 350.135 268.52C350.562 267.08 350.775 265.56 350.775 263.96V259.96Z" fill="white"/>
<path d="M366.4 242.92C366.4 239.88 366.96 237.053 368.08 234.44C369.253 231.773 370.827 229.48 372.8 227.56C374.773 225.587 377.067 224.04 379.68 222.92C382.347 221.747 385.2 221.16 388.24 221.16C391.28 221.16 394.107 221.747 396.72 222.92C399.387 224.04 401.68 225.587 403.6 227.56C405.573 229.48 407.12 231.773 408.24 234.44C409.413 237.053 410 239.88 410 242.92V263H400.72V260.76C397.093 263.373 392.933 264.68 388.24 264.68C384.933 264.68 381.92 264.12 379.2 263C376.533 261.88 374.24 260.333 372.32 258.36C370.453 256.387 368.987 254.093 367.92 251.48C366.907 248.813 366.4 245.96 366.4 242.92ZM375.76 242.92C375.76 244.627 376.08 246.253 376.72 247.8C377.413 249.293 378.32 250.6 379.44 251.72C380.56 252.84 381.867 253.747 383.36 254.44C384.907 255.08 386.533 255.4 388.24 255.4C389.947 255.4 391.547 255.107 393.04 254.52C394.587 253.88 395.92 253 397.04 251.88C398.16 250.76 399.04 249.453 399.68 247.96C400.373 246.413 400.72 244.733 400.72 242.92C400.72 241.213 400.373 239.613 399.68 238.12C399.04 236.573 398.16 235.24 397.04 234.12C395.92 233 394.587 232.12 393.04 231.48C391.547 230.787 389.947 230.44 388.24 230.44C386.533 230.44 384.907 230.787 383.36 231.48C381.867 232.12 380.56 233 379.44 234.12C378.32 235.24 377.413 236.573 376.72 238.12C376.08 239.613 375.76 241.213 375.76 242.92ZM420.781 243C420.781 239.907 421.341 237.053 422.461 234.44C423.581 231.773 425.128 229.48 427.101 227.56C429.075 225.587 431.368 224.04 433.981 222.92C436.648 221.8 439.501 221.24 442.541 221.24C445.581 221.24 448.408 221.827 451.021 223C453.688 224.12 455.981 225.667 457.901 227.64C459.875 229.56 461.421 231.853 462.541 234.52C463.715 237.133 464.301 239.96 464.301 243C464.301 246.04 463.715 248.893 462.541 251.56C461.421 254.173 459.875 256.467 457.901 258.44C455.981 260.36 453.688 261.88 451.021 263C448.408 264.173 445.581 264.76 442.541 264.76C440.248 264.76 437.928 264.28 435.581 263.32C433.288 262.413 431.448 261.32 430.061 260.04V278.84H420.781V243ZM430.061 243C430.061 244.707 430.381 246.333 431.021 247.88C431.715 249.373 432.621 250.68 433.741 251.8C434.861 252.92 436.168 253.827 437.661 254.52C439.208 255.16 440.835 255.48 442.541 255.48C444.248 255.48 445.848 255.16 447.341 254.52C448.888 253.827 450.221 252.92 451.341 251.8C452.461 250.68 453.341 249.373 453.981 247.88C454.675 246.333 455.021 244.707 455.021 243C455.021 241.293 454.675 239.693 453.981 238.2C453.341 236.653 452.461 235.32 451.341 234.2C450.221 233.08 448.888 232.2 447.341 231.56C445.848 230.867 444.248 230.52 442.541 230.52C440.835 230.52 439.208 230.867 437.661 231.56C436.168 232.2 434.861 233.08 433.741 234.2C432.621 235.32 431.715 236.653 431.021 238.2C430.381 239.693 430.061 241.293 430.061 243ZM475.116 243C475.116 239.907 475.676 237.053 476.796 234.44C477.916 231.773 479.462 229.48 481.436 227.56C483.409 225.587 485.702 224.04 488.316 222.92C490.982 221.8 493.836 221.24 496.876 221.24C499.916 221.24 502.742 221.827 505.356 223C508.022 224.12 510.316 225.667 512.236 227.64C514.209 229.56 515.756 231.853 516.876 234.52C518.049 237.133 518.636 239.96 518.636 243C518.636 246.04 518.049 248.893 516.876 251.56C515.756 254.173 514.209 256.467 512.236 258.44C510.316 260.36 508.022 261.88 505.356 263C502.742 264.173 499.916 264.76 496.876 264.76C494.582 264.76 492.262 264.28 489.916 263.32C487.622 262.413 485.782 261.32 484.396 260.04V278.84H475.116V243ZM484.396 243C484.396 244.707 484.716 246.333 485.356 247.88C486.049 249.373 486.956 250.68 488.076 251.8C489.196 252.92 490.502 253.827 491.996 254.52C493.542 255.16 495.169 255.48 496.876 255.48C498.582 255.48 500.182 255.16 501.676 254.52C503.222 253.827 504.556 252.92 505.676 251.8C506.796 250.68 507.676 249.373 508.316 247.88C509.009 246.333 509.356 244.707 509.356 243C509.356 241.293 509.009 239.693 508.316 238.2C507.676 236.653 506.796 235.32 505.676 234.2C504.556 233.08 503.222 232.2 501.676 231.56C500.182 230.867 498.582 230.52 496.876 230.52C495.169 230.52 493.542 230.867 491.996 231.56C490.502 232.2 489.196 233.08 488.076 234.2C486.956 235.32 486.049 236.653 485.356 238.2C484.716 239.693 484.396 241.293 484.396 243Z" fill="#A1D91E"/>
<rect x="175" y="11" width="153" height="153" stroke="#FBFBFB" stroke-width="3" stroke-dasharray="6 6"/>
<rect x="164" y="152" width="22" height="22" fill="#A1D91E"/>
<rect x="317" y="152" width="22" height="22" fill="white"/>
<rect x="164" width="22" height="22" fill="white"/>
<rect x="317" width="22" height="22" fill="#A1D91E"/>
<path d="M218.26 82C218.26 86.8533 219.193 91.4267 221.06 95.72C222.927 99.92 225.447 103.653 228.62 106.92C231.887 110.093 235.667 112.613 239.96 114.48C244.253 116.347 248.827 117.28 253.68 117.28C258.533 117.28 263.107 116.347 267.4 114.48C271.693 112.52 275.473 109.907 278.74 106.64H299.88C297.733 110.653 295.073 114.34 291.9 117.7C288.82 121.06 285.32 123.953 281.4 126.38C277.48 128.807 273.187 130.673 268.52 131.98C263.853 133.38 258.907 134.08 253.68 134.08C246.493 134.08 239.727 132.727 233.38 130.02C227.127 127.22 221.62 123.487 216.86 118.82C212.193 114.06 208.46 108.553 205.66 102.3C202.953 95.9533 201.6 89.1867 201.6 82C201.6 74.9067 202.953 68.1867 205.66 61.84C208.46 55.4933 212.193 49.9867 216.86 45.32C221.62 40.56 227.127 36.8267 233.38 34.12C239.727 31.32 246.493 29.92 253.68 29.92C259 29.92 263.993 30.6667 268.66 32.16C273.327 33.6533 277.62 35.7067 281.54 38.32C285.553 40.84 289.1 43.78 292.18 47.14C295.26 50.5 297.827 54.0467 299.88 57.78H278.6C275.24 54.42 271.46 51.76 267.26 49.8C263.06 47.84 258.533 46.86 253.68 46.86C248.827 46.86 244.253 47.7933 239.96 49.66C235.667 51.5267 231.887 54.0467 228.62 57.22C225.447 60.3933 222.927 64.1267 221.06 68.42C219.193 72.7133 218.26 77.24 218.26 82Z" fill="#A1D91E"/>
</svg>
