<svg id="logo-woocommerce" xmlns="http://www.w3.org/2000/svg" xmlns:xlink="http://www.w3.org/1999/xlink" width="180" height="36.231" viewBox="0 0 180 36.231">
  <defs>
    <clipPath id="clip-path">
      <rect id="Rectángulo_6464" data-name="Rectángulo 6464" width="180" height="36.231" fill="#294859"/>
    </clipPath>
  </defs>
  <g id="Grupo_16711" data-name="Grupo 16711" clip-path="url(#clip-path)">
    <path id="Trazado_16809" data-name="Trazado 16809" d="M37.54,30.275l2.432,5.958a2.635,2.635,0,0,1-.344-.125q-2.139-1.184-4.275-2.374Q33,32.42,30.651,31.1c-.348-.2-.7-.379-1.047-.582a1.874,1.874,0,0,0-1-.248q-11.444.01-22.889.011a5.328,5.328,0,0,1-2.638-.625A5.612,5.612,0,0,1,.112,25.679a5.692,5.692,0,0,1-.106-1.087Q0,15.112,0,5.631A5.691,5.691,0,0,1,4.3.172,5.545,5.545,0,0,1,5.575.013Q30.488,0,55.4,0a5.722,5.722,0,0,1,5.5,4.618,5.819,5.819,0,0,1,.1.987Q61,15.162,61,24.718a5.442,5.442,0,0,1-1.31,3.52,5.647,5.647,0,0,1-3.515,2,6.018,6.018,0,0,1-1.047.034q-8.446,0-16.892,0H37.54m-28.2-10.9c-.065-.19-.113-.3-.136-.405-.436-2.044-.893-4.084-1.294-6.134-.311-1.594-.551-3.2-.823-4.8-.131-.768-.242-1.539-.4-2.3A1.591,1.591,0,0,0,5.325,4.443a2.886,2.886,0,0,0-.747-.024A1.892,1.892,0,0,0,2.714,6.412a14.655,14.655,0,0,0,.222,1.974c.319,1.93.622,3.863,1,5.781.492,2.473,1.032,4.936,1.595,7.394a28.174,28.174,0,0,0,1.285,4.19,3.455,3.455,0,0,0,.853,1.333,1.018,1.018,0,0,0,1.142.269,3.492,3.492,0,0,0,.882-.538,9.951,9.951,0,0,0,2.116-2.879c.5-.921.943-1.869,1.417-2.8q1.219-2.4,2.446-4.8c.051-.1.113-.192.2-.338a2.336,2.336,0,0,1,.124.262c.151.492.277.993.449,1.478a30.326,30.326,0,0,0,2.307,5.24,16.222,16.222,0,0,0,2.794,3.682,3.329,3.329,0,0,0,.851.6,1.57,1.57,0,0,0,2-.337,2.662,2.662,0,0,0,.559-2.006c-.013-.2-.051-.4-.054-.593a29.9,29.9,0,0,1,.179-4.076c.1-.823.118-1.655.233-2.475.2-1.444.44-2.883.682-4.321A28.6,28.6,0,0,1,27.09,8.9c.285-.831.639-1.639.988-2.447A2.09,2.09,0,0,0,25.991,3.4a1.722,1.722,0,0,0-1.544.929,17.418,17.418,0,0,0-1.64,4.112c-.356,1.4-.69,2.8-.963,4.219-.232,1.2-.367,2.424-.54,3.638-.08.562-.149,1.125-.222,1.688a4.334,4.334,0,0,1-.453-.957,49.165,49.165,0,0,1-1.944-7.36,5.613,5.613,0,0,0-.3-1,1.765,1.765,0,0,0-3.11-.359,5.142,5.142,0,0,0-.513.8q-.977,1.825-1.934,3.661C11.907,14.52,11,16.277,10.078,18.03c-.223.426-.463.842-.741,1.348M42.2,13.992a9.915,9.915,0,0,0-.692-3.9,6.05,6.05,0,0,0-3.18-3.475,6.706,6.706,0,0,0-3.017-.528A5.541,5.541,0,0,0,32.2,7.162a9.2,9.2,0,0,0-2.554,2.959,13.273,13.273,0,0,0-1.723,5.821A10.5,10.5,0,0,0,28.737,21a5.954,5.954,0,0,0,1.88,2.473,6.305,6.305,0,0,0,4.5,1.205A5.964,5.964,0,0,0,38.811,22.9a10.928,10.928,0,0,0,2.166-3.259A13.51,13.51,0,0,0,42.2,13.992m15.639.033c-.048-.594-.08-1.19-.147-1.782a8.081,8.081,0,0,0-1.1-3.23,5.635,5.635,0,0,0-2.431-2.289,6.8,6.8,0,0,0-3.041-.634,5.75,5.75,0,0,0-4,1.647,10.748,10.748,0,0,0-2.719,4.24,12.975,12.975,0,0,0-.816,5.708,12.041,12.041,0,0,0,.32,2.008,6.917,6.917,0,0,0,1.751,3.256,6.045,6.045,0,0,0,5.687,1.641A6.4,6.4,0,0,0,55.429,21.7a13.3,13.3,0,0,0,2.408-7.678" transform="translate(0 -0.001)" fill="#294859"/>
    <path id="Trazado_16810" data-name="Trazado 16810" d="M944.774,84.938h-4.637l-1.178-11.221a2.018,2.018,0,0,0-.123.275q-.454,1.837-.9,3.676-.833,3.41-1.667,6.821c-.116.475-.123.478-.59.48-.864,0-1.728,0-2.624,0-.06-.164-.122-.3-.157-.435q-.9-3.523-1.8-7.047c-.315-1.237-.635-2.473-1.03-3.711l-1.125,11.093a26.369,26.369,0,0,1-4.434.014l2.161-16.9a49.371,49.371,0,0,1,5.9-.017c.317,1.476.647,2.98.961,4.486s.613,3.02.937,4.619c.529-3.133,1.263-6.127,1.986-9.151h6.014c.775,5.661,1.536,11.3,2.3,17.021" transform="translate(-832.034 -61.093)" fill="#294859"/>
    <path id="Trazado_16811" data-name="Trazado 16811" d="M1137.974,73.514l-1.131,11.225a24.223,24.223,0,0,1-4.392.044,4.52,4.52,0,0,1,0-.561q.235-1.9.486-3.8c.186-1.413.383-2.825.566-4.239.151-1.168.282-2.337.431-3.505.113-.888.243-1.774.36-2.661.082-.625.154-1.251.232-1.876.012-.1.031-.193.045-.28a49.8,49.8,0,0,1,5.854-.046c.7,2.929,1.3,5.907,1.92,8.889.57-2.984,1.271-5.927,1.99-8.849a50.47,50.47,0,0,1,6.007-.007l2.288,16.9a29.816,29.816,0,0,1-4.616.024c-.169-1.22-.277-2.469-.4-3.716s-.26-2.473-.393-3.71c-.134-1.253-.271-2.505-.45-3.766l-2.728,11.267h-.632c-.666,0-1.333,0-2,0-.528,0-.534-.006-.668-.531q-.663-2.606-1.322-5.213-.688-2.7-1.382-5.4c-.012-.046-.032-.09-.068-.191" transform="translate(-1019.165 -60.975)" fill="#294859"/>
    <path id="Trazado_16812" data-name="Trazado 16812" d="M786.876,72.06a12.47,12.47,0,0,1-.7,4.46A6.757,6.757,0,0,1,783,80.342a6.611,6.611,0,0,1-2.027.673,9.269,9.269,0,0,1-3.808-.159,6.174,6.174,0,0,1-3.943-2.99,9.2,9.2,0,0,1-1.185-3.773,16.563,16.563,0,0,1-.158-2.031,10.49,10.49,0,0,1,1.515-5.992,6.354,6.354,0,0,1,4.191-2.731,8.852,8.852,0,0,1,4.383.237,6.305,6.305,0,0,1,4.107,3.862,12.1,12.1,0,0,1,.8,4.624m-5.023-.068a8.847,8.847,0,0,0-.312-2.864,3.252,3.252,0,0,0-.858-1.492,2.081,2.081,0,0,0-2.872.185,3.389,3.389,0,0,0-.621,1.237,8.324,8.324,0,0,0-.311,2.26c.012,1.012.036,2.025.11,3.033a5.782,5.782,0,0,0,.31,1.4,1.8,1.8,0,0,0,1.183,1.261,3.877,3.877,0,0,0,1.13.1,1.711,1.711,0,0,0,1.4-.756,3.653,3.653,0,0,0,.513-1.067,11.031,11.031,0,0,0,.33-3.3" transform="translate(-694.67 -56.85)" fill="#294859"/>
    <path id="Trazado_16813" data-name="Trazado 16813" d="M1465.63,84.881c-.212.016-.356.036-.5.036-1.316,0-2.632-.01-3.948.01a.609.609,0,0,1-.643-.414c-1.032-2.178-2.08-4.349-3.124-6.522a2.58,2.58,0,0,0-.4-.649v7.523a3.876,3.876,0,0,1-.426.052q-1.874.005-3.748,0c-.5,0-.53-.035-.53-.549q0-8.033,0-16.066c0-.129.022-.259.037-.429.161-.015.3-.04.448-.04,1.782,0,3.565-.023,5.347.011a8.931,8.931,0,0,1,3.5.714,4.849,4.849,0,0,1,2.619,2.341,4.558,4.558,0,0,1-.457,4.892,4.755,4.755,0,0,1-.8.813c-.277.234-.6.417-.954.66.061.151.122.334.206.507q1.536,3.191,3.075,6.38c.105.219.188.449.3.73m-8.583-9.773a4.21,4.21,0,0,0,2.173-.444,1.114,1.114,0,0,0,.642-.838,5.242,5.242,0,0,0-.057-1.277,1.223,1.223,0,0,0-.636-.853,3.409,3.409,0,0,0-2.122-.426Z" transform="translate(-1307.035 -61.041)" fill="#294859"/>
    <path id="Trazado_16814" data-name="Trazado 16814" d="M1355.692,81.37v3.618c-.406.105-8.793.123-9.344.02-.013-.13-.039-.273-.039-.416q0-8.035,0-16.069c0-.5.033-.533.546-.534q4.148,0,8.3,0c.067,0,.134,0,.2,0,.291.026.34.074.364.363.007.083,0,.166,0,.249,0,.848,0,1.7,0,2.545,0,.162-.018.324-.031.543-1.555.043-3.079-.009-4.63.029v3.028c1.329.014,2.652,0,3.955.01a13.975,13.975,0,0,1-.035,3.6h-3.846a12.705,12.705,0,0,0-.057,2.966c1.512.066,3.037-.009,4.621.043" transform="translate(-1211.637 -61.187)" fill="#294859"/>
    <path id="Trazado_16815" data-name="Trazado 16815" d="M1710.483,81.278h4.636V84.9c-.369.115-8.67.142-9.227.035-.1-.343-.142-16.264-.04-16.934.012-.011.024-.023.037-.033s.026-.026.04-.028a3.259,3.259,0,0,1,.346-.031q4.323,0,8.647.008a.5.5,0,0,1,.136.04,20.183,20.183,0,0,1,.046,3.637c-.161.012-.335.035-.51.035-1.183,0-2.366,0-3.549,0h-.568V74.6h.564c.983,0,1.966,0,2.949,0,.505,0,.537.035.539.54q.005,1.3,0,2.6c0,.144-.026.287-.044.476h-4Z" transform="translate(-1535.163 -61.112)" fill="#294859"/>
    <path id="Trazado_16816" data-name="Trazado 16816" d="M658.573,76.9a3.868,3.868,0,0,1,.055.436q.006,1.6,0,3.192c0,.451-.043.5-.487.608a9.151,9.151,0,0,1-7.154-1.031,7.87,7.87,0,0,1-3.573-4.743,10,10,0,0,1,.081-6.223,8.077,8.077,0,0,1,6.2-5.414,11.071,11.071,0,0,1,4.505.016,1.491,1.491,0,0,1,.238.07.739.739,0,0,1,.122.074,26.056,26.056,0,0,1-.019,4.053c-.172-.033-.345-.074-.521-.1a13.73,13.73,0,0,0-1.871-.252,3.733,3.733,0,0,0-3.095,1.443,5.151,5.151,0,0,0-1.03,2.551,6.244,6.244,0,0,0,.227,2.752,3.828,3.828,0,0,0,3,2.828,5.928,5.928,0,0,0,2.764-.125c.171-.046.344-.083.56-.134" transform="translate(-582.244 -57.145)" fill="#294859"/>
    <path id="Trazado_16817" data-name="Trazado 16817" d="M1589.291,67.994c-.816-.118-1.536-.276-2.262-.315a3.691,3.691,0,0,0-3.214,1.392,5.442,5.442,0,0,0-1.08,4.222,4.843,4.843,0,0,0,.919,2.491,3.727,3.727,0,0,0,2.8,1.528,7.171,7.171,0,0,0,2.37-.217c.126-.033.255-.053.443-.091a3.061,3.061,0,0,1,.084.486q.011,1.572,0,3.144c0,.425-.05.486-.457.584a9.153,9.153,0,0,1-7.418-1.169,8.164,8.164,0,0,1-3.535-5.3,11.409,11.409,0,0,1-.179-3.472,8.011,8.011,0,0,1,1.9-4.627,8.2,8.2,0,0,1,5.379-2.95,11.225,11.225,0,0,1,3.771.111c.512.109.539.144.541.66q.005,1.522,0,3.044a3.851,3.851,0,0,1-.059.473" transform="translate(-1419.891 -57.237)" fill="#294859"/>
    <path id="Trazado_16818" data-name="Trazado 16818" d="M326.2,105.9a8.893,8.893,0,0,1-1.382,4.622,4.75,4.75,0,0,1-1.315,1.275,2.772,2.772,0,0,1-.58.283,1.488,1.488,0,0,1-1.837-.588,5.458,5.458,0,0,1-.9-2.4,7.616,7.616,0,0,1,.646-4.263,8.263,8.263,0,0,1,1.353-2.079,2.611,2.611,0,0,1,1.151-.763,1.553,1.553,0,0,1,1.848.592,5.394,5.394,0,0,1,.9,2.347c.052.343.084.689.118.973" transform="translate(-288.08 -91.696)" fill="#294859"/>
    <path id="Trazado_16819" data-name="Trazado 16819" d="M476.681,108.311a7.936,7.936,0,0,1,1.884-5.4,2.738,2.738,0,0,1,1.4-.992,1.493,1.493,0,0,1,1.522.371,3.969,3.969,0,0,1,1,1.924,6.892,6.892,0,0,1,.142,2.713,8.588,8.588,0,0,1-.956,3.071,4.488,4.488,0,0,1-1.944,1.939,1.593,1.593,0,0,1-2.171-.581,5.647,5.647,0,0,1-.869-3.042" transform="translate(-428.998 -91.659)" fill="#294859"/>
  </g>
</svg>
