<svg id="logo-wordpress" xmlns="http://www.w3.org/2000/svg" xmlns:xlink="http://www.w3.org/1999/xlink" width="180" height="36.708" viewBox="0 0 180 36.708">
  <defs>
    <clipPath id="clip-path">
      <rect id="Rectángulo_6463" data-name="Rectángulo 6463" width="180" height="36.708" fill="#294859"/>
    </clipPath>
  </defs>
  <g id="Grupo_16709" data-name="Grupo 16709" clip-path="url(#clip-path)">
    <path id="Trazado_16800" data-name="Trazado 16800" d="M538.249,88.063h-7.3v.775c2.284,0,2.651.489,2.651,3.385v5.221c0,2.9-.367,3.426-2.651,3.426-1.753-.245-2.936-1.183-4.568-2.977l-1.876-2.039c2.528-.449,3.874-2.04,3.874-3.834,0-2.243-1.917-3.956-5.506-3.956H515.7v.775c2.284,0,2.651.489,2.651,3.385v5.221c0,2.9-.367,3.426-2.651,3.426v.775h8.116v-.775c-2.284,0-2.651-.53-2.651-3.426V95.975h.693l4.527,5.669h11.869c5.833,0,8.361-3.1,8.361-6.811s-2.528-6.77-8.361-6.77M521.16,94.71V89.286h1.672a2.713,2.713,0,0,1,0,5.424Zm17.211,5.67h-.286c-1.468,0-1.672-.367-1.672-2.243v-8.85h1.958c4.241,0,5.016,3.1,5.016,5.506,0,2.488-.775,5.588-5.016,5.588" transform="translate(-435.919 -74.44)" fill="#294859"/>
    <path id="Trazado_16801" data-name="Trazado 16801" d="M267.67,73.931l2.814-8.321c.816-2.406.449-3.1-2.161-3.1v-.816h7.668v.816c-2.57,0-3.181.612-4.2,3.589l-4.65,13.949h-.53l-4.16-12.766-4.241,12.766h-.53L253.15,66.1c-.979-2.977-1.631-3.589-4-3.589v-.816h9.055v.816c-2.407,0-3.059.571-2.2,3.1l2.732,8.321,4.119-12.236h.775Z" transform="translate(-210.61 -52.151)" fill="#294859"/>
    <path id="Trazado_16802" data-name="Trazado 16802" d="M413.911,99.273c-4.486,0-8.157-3.3-8.157-7.342,0-4,3.671-7.3,8.157-7.3s8.157,3.3,8.157,7.3c0,4.038-3.671,7.342-8.157,7.342m0-13.377c-3.752,0-5.057,3.385-5.057,6.036,0,2.692,1.305,6.037,5.057,6.037,3.794,0,5.1-3.344,5.1-6.037,0-2.651-1.3-6.036-5.1-6.036" transform="translate(-342.985 -71.539)" fill="#294859"/>
    <path id="Trazado_16803" data-name="Trazado 16803" d="M729.623,78.54v.816h-9.34V78.54c2.733,0,3.222-.693,3.222-4.772V67.242c0-4.079-.489-4.731-3.222-4.731v-.816h8.442c4.2,0,6.526,2.162,6.526,5.058,0,2.814-2.325,5.017-6.526,5.017H726.4v2c0,4.079.489,4.772,3.222,4.772m-.9-15.376H726.4v7.1h2.325a3.187,3.187,0,0,0,3.344-3.507c0-1.958-1.06-3.59-3.344-3.59" transform="translate(-608.858 -52.151)" fill="#294859"/>
    <path id="Trazado_16804" data-name="Trazado 16804" d="M850.185,97.811l-.2.734c-.367,1.346-.816,1.835-3.711,1.835H845.7c-2.121,0-2.488-.489-2.488-3.385V95.119c3.181,0,3.426.285,3.426,2.406h.775V91.448h-.775c0,2.121-.245,2.406-3.426,2.406V89.286h2.243c2.9,0,3.345.489,3.711,1.835l.2.775h.652l-.285-3.833H837.745v.775c2.284,0,2.651.489,2.651,3.385v5.221c0,2.649-.312,3.316-2.112,3.411-1.712-.261-2.887-1.195-4.494-2.963l-1.876-2.039c2.529-.449,3.875-2.04,3.875-3.834,0-2.243-1.917-3.956-5.506-3.956H823.1v.775c2.284,0,2.651.489,2.651,3.385v5.221c0,2.9-.367,3.426-2.651,3.426v.775h8.116v-.775c-2.284,0-2.651-.53-2.651-3.426V95.975h.693l4.527,5.669h16.762l.245-3.833Zm-21.615-3.1V89.286h1.672a2.713,2.713,0,0,1,0,5.424Z" transform="translate(-695.773 -74.44)" fill="#294859"/>
    <path id="Trazado_16805" data-name="Trazado 16805" d="M1023.824,99.274a6.032,6.032,0,0,1-3.671-1.387,2.931,2.931,0,0,0-.652,1.387h-.775V93.646h.816a4.526,4.526,0,0,0,4.609,4.282,2.1,2.1,0,0,0,2.366-1.958c0-1.06-.938-1.876-2.61-2.651l-2.325-1.1a4.438,4.438,0,0,1-2.855-3.916c0-1.958,1.835-3.63,4.364-3.63a5.107,5.107,0,0,1,3.181,1.06,2.308,2.308,0,0,0,.53-1.1h.775v4.813h-.857c-.286-1.917-1.346-3.508-3.507-3.508-1.142,0-2.2.653-2.2,1.673,0,1.06.856,1.631,2.815,2.528l2.243,1.1a4.255,4.255,0,0,1,2.733,3.671c0,2.57-2.243,4.364-4.975,4.364" transform="translate(-861.132 -71.54)" fill="#294859"/>
    <path id="Trazado_16806" data-name="Trazado 16806" d="M1103.544,99.274a6.032,6.032,0,0,1-3.671-1.387,2.932,2.932,0,0,0-.652,1.387h-.775V93.646h.816a4.526,4.526,0,0,0,4.609,4.282,2.1,2.1,0,0,0,2.366-1.958c0-1.06-.938-1.876-2.61-2.651l-2.325-1.1a4.438,4.438,0,0,1-2.855-3.916c0-1.958,1.835-3.63,4.364-3.63a5.106,5.106,0,0,1,3.181,1.06,2.3,2.3,0,0,0,.53-1.1h.775v4.813h-.856c-.286-1.917-1.346-3.508-3.507-3.508-1.142,0-2.2.653-2.2,1.673,0,1.06.856,1.631,2.815,2.528l2.243,1.1a4.255,4.255,0,0,1,2.733,3.671c0,2.57-2.243,4.364-4.976,4.364" transform="translate(-928.52 -71.54)" fill="#294859"/>
    <path id="Trazado_16807" data-name="Trazado 16807" d="M18.354,1.1A17.166,17.166,0,0,1,28,4.047a17.306,17.306,0,0,1,6.252,7.592A17.229,17.229,0,0,1,32.661,28a17.306,17.306,0,0,1-7.592,6.252,17.229,17.229,0,0,1-16.361-1.59,17.306,17.306,0,0,1-6.252-7.592A17.229,17.229,0,0,1,4.047,8.708a17.3,17.3,0,0,1,7.592-6.252A17.141,17.141,0,0,1,18.354,1.1m0-1.1A18.354,18.354,0,1,0,36.708,18.354,18.354,18.354,0,0,0,18.354,0" fill="#294859"/>
    <path id="Trazado_16808" data-name="Trazado 16808" d="M19.774,35.068a15.3,15.3,0,0,0,8.62,13.765L21.1,28.844a15.235,15.235,0,0,0-1.324,6.225m25.62-.771a8.055,8.055,0,0,0-1.261-4.218c-.775-1.26-1.5-2.327-1.5-3.587A2.648,2.648,0,0,1,45.2,23.777c.068,0,.132.008.2.012A15.291,15.291,0,0,0,22.29,26.668c.359.011.7.019.984.019,1.6,0,4.076-.194,4.076-.194a.632.632,0,0,1,.1,1.26s-.829.1-1.75.145l5.57,16.567,3.348-10.038L32.232,27.9c-.824-.048-1.6-.145-1.6-.145a.632.632,0,0,1,.1-1.26s2.525.194,4.028.194c1.6,0,4.077-.194,4.077-.194a.632.632,0,0,1,.1,1.26s-.83.1-1.75.145L42.7,44.338l1.578-5A17.636,17.636,0,0,0,45.394,34.3M35.338,36.406l-4.59,13.334a15.3,15.3,0,0,0,9.4-.244,1.383,1.383,0,0,1-.11-.211Zm13.153-8.675a11.76,11.76,0,0,1,.1,1.573,14.437,14.437,0,0,1-1.163,5.478L42.759,48.288a15.3,15.3,0,0,0,5.732-20.557" transform="translate(-16.715 -16.715)" fill="#294859"/>
  </g>
</svg>
